<svg width="19" height="21" viewBox="0 0 19 21" fill="none" xmlns="http://www.w3.org/2000/svg">
<path d="M0.623047 12C0.623047 14.3869 1.57126 16.6761 3.25909 18.364C4.94691 20.0518 7.2361 21 9.62305 21C9.62305 16 5.59305 12 0.623047 12ZM9.62305 4.5C10.2861 4.5 10.922 4.76339 11.3908 5.23223C11.8597 5.70107 12.123 6.33696 12.123 7C12.123 7.66304 11.8597 8.29893 11.3908 8.76777C10.922 9.23661 10.2861 9.5 9.62305 9.5C8.96001 9.5 8.32412 9.23661 7.85528 8.76777C7.38644 8.29893 7.12305 7.66304 7.12305 7C7.12305 6.33696 7.38644 5.70107 7.85528 5.23223C8.32412 4.76339 8.96001 4.5 9.62305 4.5ZM3.22305 9.25C3.22305 9.91304 3.48644 10.5489 3.95528 11.0178C4.42412 11.4866 5.06001 11.75 5.72305 11.75C6.25305 11.75 6.74305 11.58 7.12305 11.31V11.5C7.12305 12.163 7.38644 12.7989 7.85528 13.2678C8.32412 13.7366 8.96001 14 9.62305 14C10.2861 14 10.922 13.7366 11.3908 13.2678C11.8597 12.7989 12.123 12.163 12.123 11.5V11.31C12.503 11.58 12.993 11.75 13.523 11.75C14.1861 11.75 14.822 11.4866 15.2908 11.0178C15.7597 10.5489 16.023 9.91304 16.023 9.25C16.023 8.25 15.433 7.4 14.593 7C15.433 6.6 16.023 5.74 16.023 4.75C16.023 4.08696 15.7597 3.45107 15.2908 2.98223C14.822 2.51339 14.1861 2.25 13.523 2.25C12.993 2.25 12.503 2.41 12.123 2.69V2.5C12.123 1.83696 11.8597 1.20107 11.3908 0.732233C10.922 0.263392 10.2861 0 9.62305 0C8.96001 0 8.32412 0.263392 7.85528 0.732233C7.38644 1.20107 7.12305 1.83696 7.12305 2.5V2.69C6.74305 2.41 6.25305 2.25 5.72305 2.25C5.06001 2.25 4.42412 2.51339 3.95528 2.98223C3.48644 3.45107 3.22305 4.08696 3.22305 4.75C3.22305 5.74 3.81305 6.6 4.65305 7C3.81305 7.4 3.22305 8.25 3.22305 9.25ZM9.62305 21C12.01 21 14.2992 20.0518 15.987 18.364C17.6748 16.6761 18.623 14.3869 18.623 12C13.623 12 9.62305 16 9.62305 21Z" fill="black"/>
</svg>
