<?xml version="1.0" encoding="UTF-8"?>
<svg id="Layer_1" data-name="Layer 1" xmlns="http://www.w3.org/2000/svg" viewBox="0 0 18.23 7.58">
  <defs>
    <style>
      .cls-1 {
        fill: #fff;
      }
    </style>
  </defs>
  <path class="cls-1" d="M1.95,.21c-.07,.09-.13,.16-.18,.21-.16,.15-.33,.24-.52,.27l-.03,.02s-.07,.11-.07,.2v1.17s0,.08,0,.08c.03,.12,.1,.2,.22,.25l.05,.02s.05,.03,.05,.05h0s-.02,.03-.02,.03l-.08,.02H.47c-.07,0-.11-.02-.12-.05v-.02s.03-.03,.07-.05h.02c.06-.03,.12-.07,.15-.13,.04-.06,.06-.12,.06-.19v-.85s0-.06-.01-.08c-.02-.05-.06-.08-.12-.08v-.02s-.03-.03-.03-.06c0-.05,.03-.1,.08-.14,.07-.06,.19-.14,.36-.22-.05,0-.08,0-.1,.01h0s-.05,.01-.06,.02c-.25,.05-.47,.13-.66,.22H.03s-.03,0-.03-.01v-.05s.01-.03,.02-.04c.07-.1,.12-.19,.14-.29,.02-.07,.03-.13,.03-.18,0-.06,.04-.11,.11-.15,.07-.04,.17-.06,.3-.06,.07,0,.15,0,.25,.02,.03,0,.07,0,.13,.01,0,0,0,0,.02,0h.03c.06,.02,.11,.03,.14,.04l.06,.02c.05,.01,.11,.02,.17,.02,.08,0,.15-.01,.23-.04,.07-.02,.14-.08,.22-.16h.02s.04-.03,.04-.03h.02s.03,.05,.03,.09v.12Z"/>
  <path class="cls-1" d="M3.56,2.53h-.61s-.07,0-.07-.02c0,0,0,0,0-.01,0,0,0,0,0-.01v-.03c.06-.03,.1-.07,.13-.11,.03-.04,.04-.09,.04-.16v-.76c0-.07-.02-.12-.07-.17-.04-.04-.09-.07-.15-.07-.03,0-.05,0-.07,.01-.1,.04-.15,.13-.15,.27v.78c.02,.11,.07,.18,.15,.2v.02s.02,.01,.02,.01l-.02,.03h-.03s-.04,.01-.04,.01h-.64s-.05,0-.06-.01c0-.02,0-.03,.02-.04l.02-.02c.06-.03,.1-.08,.13-.15,.01-.04,.02-.08,.02-.14V.58c0-.07-.01-.13-.04-.18-.01-.03-.05-.06-.1-.09h-.01s-.03-.07-.03-.09c.02,0,.03-.01,.04-.01h.08s.08,0,.13-.02c.09-.02,.18-.07,.25-.14l.03-.02s.05-.02,.07-.03c.01,0,.02,.03,.02,.1v.97c.03-.06,.09-.11,.16-.14,.07-.03,.16-.05,.25-.05,.12,0,.21,.02,.28,.06,.11,.06,.17,.18,.17,.34v.92l.02,.1c.03,.08,.07,.13,.13,.16l.02,.03v.02s-.02,.03-.09,.03Z"/>
  <path class="cls-1" d="M5.12,1.99c0,.1-.08,.23-.23,.39-.12,.12-.25,.18-.4,.18-.2,0-.35-.07-.48-.22-.08-.1-.14-.24-.18-.4l-.03-.22c0-.25,.06-.45,.18-.6,.08-.1,.19-.17,.33-.22,.07-.02,.13-.03,.18-.03,.04,0,.08,0,.11,0,.04,0,.06,0,.07,.02l.05,.03s.1,.03,.15,.03c.03,0,.07,0,.12-.02l.06,.07c.04,.07,.06,.15,.06,.25v.07c0,.09-.03,.17-.07,.25-.05,.07-.12,.14-.21,.2-.05,.03-.13,.07-.25,.12h-.06c-.08,0-.16-.02-.24-.07l-.1-.09c.01,.09,.03,.17,.06,.22,.07,.15,.21,.22,.39,.22,.03,0,.06,0,.08-.02,.12-.04,.23-.12,.33-.23l.03-.03,.05-.03s.01,.01,.02,.03v.07Zm-.48-.82c-.04-.05-.1-.08-.19-.08-.12,0-.2,.04-.25,.12-.01,.03-.02,.06-.03,.09,0,.03-.01,.07-.01,.12,.02-.04,.05-.06,.09-.08,.03-.01,.06-.02,.1-.02,.04,0,.09,0,.12,.02,.03,.01,.05,.05,.05,.09,0,.02,0,.04-.01,.05h-.03s-.03,.01-.04,0l-.04-.02h-.02s-.04-.02-.04-.02c-.01,0-.03,0-.03,.02v.1s0,.07,.03,.1c.02,.02,.06,.04,.11,.04h.07c.11-.05,.18-.15,.19-.3,0-.1-.02-.17-.06-.23Z"/>
  <path class="cls-1" d="M2.2,5.83s-.06,.03-.08,.05c-.05,.05-.08,.13-.08,.22v.25s0,.07,.03,.12,.06,.08,.12,.11v.02s.01,.03,.01,.03c0,.01,0,.03-.01,.05-.01,.02-.03,.04-.05,.05-.08,.06-.16,.12-.24,.16-.21,.11-.44,.17-.7,.17-.32,0-.59-.11-.78-.32-.13-.15-.23-.35-.29-.59l-.04-.32v-.12c0-.36,.08-.64,.25-.85,.12-.15,.28-.26,.5-.33,.13-.04,.25-.06,.37-.06s.21,.01,.29,.04l.08,.03,.07,.03s.1,.03,.14,.03h.1s.07-.03,.1-.06c.04,.03,.07,.06,.09,.09,.06,.08,.09,.18,.09,.29,0,.19-.06,.34-.17,.45-.12,.11-.26,.16-.43,.16s-.29-.05-.38-.15c-.02-.03-.04-.08-.06-.15,0-.04,0-.07,.01-.1,0-.02,.02-.06,.04-.09l.03-.03s.07-.03,.1-.03c.02,0,.04,0,.05,.01,0,0,.02,.03,.03,.05v.06s-.03,.02-.04,.04l-.02,.08,.03,.05s.06,.05,.12,.05c.06,0,.11-.02,.14-.07,.02-.04,.03-.08,.03-.14,0-.11-.03-.2-.1-.26-.07-.06-.16-.09-.29-.09-.19,0-.35,.08-.48,.23-.13,.16-.19,.39-.19,.69v.11c.03,.18,.05,.31,.09,.4,.11,.26,.29,.4,.55,.4,.14,0,.25-.04,.3-.13,.03-.06,.05-.12,.05-.2v-.12c0-.08-.04-.15-.12-.22-.01-.01-.06-.04-.12-.07-.07-.05-.11-.09-.12-.12h0s.03-.03,.06-.03c.03,0,.08,0,.14,.02h.06s.08,.03,.08,.03c.08,.01,.16,.02,.24,.02h.18c.05-.02,.11-.04,.17-.06h.04s.05-.02,.05-.02c.01,0,.03,0,.03,.01,0,.04-.02,.1-.05,.15Z"/>
  <path class="cls-1" d="M3.89,6.99h-.43s-.07-.02-.09-.07c-.01-.05-.02-.1-.02-.14l-.04,.08c-.09,.12-.22,.17-.4,.17-.22,0-.38-.09-.47-.27-.01-.02-.02-.06-.04-.1,0-.03-.02-.08-.04-.17,0-.22,.07-.38,.22-.47,.08-.05,.18-.08,.29-.08,.1,0,.18,.03,.24,.09,.06,.06,.09,.15,.09,.25,0,.04-.02,.07-.06,.1h-.03s-.03-.06-.06-.07c-.04-.02-.07-.03-.11-.03-.03,0-.05,.01-.07,.02-.05,.03-.07,.09-.07,.17,0,.06,.02,.1,.03,.13,.04,.08,.1,.13,.19,.13,.09-.01,.16-.06,.2-.13,.03-.05,.05-.12,.05-.19v-.07s-.01-.06-.01-.06l-.1-.53c0-.07-.03-.12-.06-.14-.03-.02-.08-.03-.13-.03-.04,0-.07,0-.08,.01-.01,.01-.02,.04-.02,.08,0,.01,0,.03,.01,.05,0,.02,.03,.03,.06,.04,0,.03-.03,.06-.08,.09h-.11c-.13,.01-.23-.04-.29-.16-.02-.04-.03-.1-.05-.18,0-.05,0-.09,.02-.13,.01-.03,.04-.06,.09-.09,.04,.02,.09,.04,.12,.06s.07,.02,.1,.02c.04,0,.08,0,.11,0h.16s.1-.03,.19-.06c.1,0,.18,.02,.24,.07,.1,.08,.16,.21,.18,.39l.12,.82c0,.06,.02,.1,.03,.12,.02,.07,.05,.12,.1,.15l.04,.02s.04,.03,.05,.05c0,.02-.02,.03-.07,.03Z"/>
  <path class="cls-1" d="M5.19,5.66s-.02,.04-.04,.07l-.1,.08c-.07,.07-.1,.13-.1,.18,0,.02,0,.05,.02,.07,.01,.03,.02,.05,.02,.06,0,.02,0,.03-.03,.04h-.03s-.09,0-.11-.05c-.02-.04-.03-.1-.03-.18s-.01-.12-.03-.14c-.02-.02-.04-.03-.08-.04-.03,0-.06,.02-.07,.03-.02,.03-.04,.06-.04,.11v.77c0,.07,.03,.13,.09,.17l.09,.04h.02s.02,.04,.03,.05c0,.03-.02,.05-.07,.06h-.75s-.05-.02-.06-.04l.02-.04,.02-.02,.05-.02c.07-.04,.11-.12,.11-.23v-.8c0-.08-.02-.14-.07-.19-.01-.01-.04-.03-.07-.04h-.02s-.03-.05-.03-.05h0s.03-.04,.08-.04c.09,0,.16,0,.21-.03,.09-.03,.17-.08,.23-.16l.02-.02s.02,0,.03-.01c0,0,0,0,.01,0h0s.03,.02,.03,.02v.13s0,.14,0,.14l.08-.14c.07-.09,.15-.14,.25-.14,.08,0,.15,.04,.21,.09l.04,.05s.02,.04,.03,.06c.01,.03,.02,.06,.02,.08,0,.02,0,.04,0,.06Z"/>
  <path class="cls-1" d="M6.89,6.98h-.06s-.48,0-.48,0c-.02-.03-.04-.06-.06-.1v-.13c-.05,.06-.08,.11-.11,.13-.09,.09-.21,.13-.35,.13-.23,0-.39-.1-.49-.29-.06-.13-.09-.29-.09-.49v-.09c0-.27,.05-.47,.16-.61,.1-.14,.24-.21,.42-.21h.09c.1,0,.19,.02,.27,.08,.02,.01,.05,.04,.09,.09v-.51c0-.07-.01-.12-.04-.15-.02-.03-.05-.05-.1-.07-.05-.03-.08-.06-.09-.07h0s.02,0,.02,0c.03,0,.06-.01,.08-.01,.04,0,.08,0,.13-.02,.05-.01,.09-.03,.14-.05,.02,0,.05-.02,.09-.04,.02-.01,.05-.03,.09-.06,.03-.04,.06-.06,.09-.06,0,0,.01,.03,.01,.06,0,.03,0,.06,0,.08v1.97c0,.05,0,.09,0,.1,0,.03,.01,.07,.03,.11,.01,.06,.05,.11,.11,.14,.04,.02,.06,.04,.06,.06,0,.01-.01,.02-.03,.03Zm-.61-1.08l-.06,.06c-.06,.04-.11,.06-.16,.06-.02,0-.05,0-.08-.02l-.04-.04s-.04-.06-.04-.08c0-.01,.01-.02,.04-.02h.08c.06,.01,.1,0,.13-.05l.02-.07c0-.06-.02-.11-.05-.13-.03-.02-.07-.04-.12-.04h-.06c-.08,0-.14,.05-.19,.15-.05,.09-.07,.23-.07,.4v.11c0,.17,.04,.29,.12,.37,.05,.05,.12,.07,.19,.07,.12,0,.2-.07,.26-.22,.04-.1,.06-.23,.06-.39v-.17Z"/>
  <path class="cls-1" d="M8.31,6.44c0,.1-.08,.23-.23,.39-.12,.12-.25,.18-.4,.18-.2,0-.35-.07-.48-.22-.08-.1-.14-.24-.18-.4l-.03-.22c0-.25,.06-.45,.18-.6,.08-.1,.19-.17,.33-.22,.07-.02,.13-.03,.18-.03,.04,0,.08,0,.11,0,.04,0,.06,0,.07,.02l.05,.03s.1,.03,.15,.03c.03,0,.07,0,.12-.02l.06,.07c.04,.07,.06,.15,.06,.25v.07c0,.09-.03,.17-.07,.25-.05,.07-.12,.14-.21,.2-.05,.03-.13,.07-.25,.12h-.06c-.08,0-.16-.02-.24-.07l-.1-.09c.01,.09,.03,.17,.06,.22,.07,.15,.21,.22,.39,.22,.03,0,.06,0,.08-.02,.12-.04,.23-.12,.33-.23l.03-.03,.05-.03s.01,.01,.02,.03v.07Zm-.48-.82c-.04-.05-.1-.08-.19-.08-.12,0-.2,.04-.25,.12-.01,.03-.02,.06-.03,.09,0,.03-.01,.07-.01,.12,.02-.04,.05-.06,.09-.08,.03-.01,.06-.02,.1-.02,.04,0,.09,0,.12,.02,.03,.01,.05,.05,.05,.09,0,.02,0,.04-.01,.05h-.03s-.03,.01-.04,0l-.04-.02h-.02s-.04-.02-.04-.02c-.01,0-.03,0-.03,.02v.1s0,.07,.03,.1c.02,.02,.06,.04,.11,.04h.07c.11-.05,.18-.15,.19-.3,0-.1-.02-.17-.06-.23Z"/>
  <path class="cls-1" d="M9.98,6.98h-.05s-.61,0-.61,0c-.04,0-.06-.02-.07-.04v-.03s.02-.03,.02-.03c.05-.02,.09-.06,.11-.12,.01-.04,.02-.08,.02-.12v-.75c0-.1-.02-.18-.07-.22-.02-.01-.03-.02-.05-.03s-.04-.01-.07-.01c-.06,0-.11,.02-.15,.06-.03,.05-.05,.11-.05,.18v.75c0,.05,.01,.1,.03,.14,.02,.04,.05,.08,.1,.1v.02s.03,.04,.03,.04c0,.01-.03,.02-.07,.03h-.62c-.06,0-.09,0-.1-.02l.02-.04,.02-.03s.08-.04,.1-.09c.02-.04,.04-.09,.04-.15v-.76c0-.08-.02-.14-.06-.19l-.06-.06-.05-.04s-.02-.03-.02-.04c0-.01,.02-.03,.06-.04h.03c.12,0,.23-.03,.33-.1,.03-.01,.07-.05,.12-.1l.03-.02h.03s0,0,.01,0c0,0,0,0,0,0v.03s0,.18,0,.18c.05-.08,.13-.14,.24-.17l.14-.03c.14,0,.26,.04,.34,.13s.13,.21,.13,.37v.07s0,.76,0,.76v.1s.04,.06,.06,.09l.08,.06v.02s.02,.03,.02,.03c0,.01-.01,.02-.02,.03Z"/>
  <path class="cls-1" d="M13.03,6.82c-.12,.09-.27,.16-.47,.2-.05,.01-.1,.02-.13,.02-.05,0-.09,0-.12,0-.29,0-.52-.05-.69-.16-.12-.07-.2-.18-.26-.31l-.04-.17c0-.19,.08-.32,.25-.4,.03-.01,.11-.03,.25-.06,.11,0,.21,.04,.32,.13l.12,.13c.03,.05,.04,.11,.04,.16,0,.01-.01,.02-.04,.02-.01,0-.03,0-.04,0h-.04s-.06-.07-.13-.09l-.08-.02s-.07,0-.1,.03c-.04,.03-.06,.08-.07,.16,0,.08,.02,.15,.06,.19,.06,.08,.18,.12,.34,.12,.18,0,.32-.04,.42-.12,.1-.07,.14-.18,.14-.33,0-.11-.05-.2-.15-.29-.03-.03-.09-.06-.15-.09l-.69-.25c-.09-.05-.16-.12-.21-.2-.05-.09-.08-.19-.08-.31l.03-.19c.04-.14,.11-.26,.21-.35,.14-.13,.34-.19,.58-.19,.09,0,.15,0,.17,0,0,0,.03,0,.06,.01,.02,0,.04,0,.07,.01,.09,.01,.18,.05,.26,.11l.04,.02s.07,.02,.09,.02c.04,0,.07,0,.09-.03l.06-.02,.1-.02h.03s.01,.03,.01,.03c0,.02-.03,.06-.09,.12-.07,.03-.12,.06-.15,.09-.11,.09-.19,.22-.23,.37-.02,.07-.05,.11-.08,.11-.02,0-.04-.02-.07-.06l-.03-.06c-.02-.11-.08-.18-.16-.23-.02-.01-.06-.03-.12-.04-.08,0-.14,0-.19,.03-.08,.03-.12,.09-.12,.18,0,.06,.01,.1,.03,.13,.02,.03,.05,.06,.1,.08l.75,.3c.08,.05,.14,.1,.18,.14,.12,.14,.18,.3,.18,.49,0,.22-.08,.4-.25,.54Z"/>
  <path class="cls-1" d="M14.93,6.99h-.61s-.07,0-.07-.02c0,0,0,0,0-.01,0,0,0,0,0-.01v-.03c.06-.03,.1-.07,.13-.11,.03-.04,.04-.09,.04-.16v-.76c0-.07-.02-.12-.07-.17-.04-.04-.09-.07-.15-.07-.03,0-.05,0-.07,.01-.1,.04-.15,.13-.15,.27v.78c.02,.11,.07,.18,.15,.2v.02s.02,.01,.02,.01l-.02,.03h-.03s-.04,.01-.04,.01h-.64s-.05,0-.06-.01c0-.02,0-.03,.02-.04l.02-.02c.06-.03,.1-.08,.13-.15,.01-.04,.02-.08,.02-.14v-1.59c0-.07-.01-.13-.04-.18-.01-.03-.05-.06-.1-.09h-.01s-.03-.07-.03-.09c.02,0,.03-.01,.04-.01h.08s.08,0,.13-.02c.09-.02,.18-.07,.25-.14l.03-.02s.05-.02,.07-.03c.01,0,.02,.03,.02,.1v.97c.03-.06,.09-.11,.16-.14,.07-.03,.16-.05,.25-.05,.12,0,.21,.02,.28,.06,.11,.06,.17,.18,.17,.34v.92l.02,.1c.03,.08,.07,.13,.13,.16l.02,.03v.02s-.02,.03-.09,.03Z"/>
  <path class="cls-1" d="M16.35,6.79c-.1,.15-.25,.23-.43,.23-.21,0-.38-.07-.52-.2-.09-.09-.15-.21-.19-.37,0-.03,0-.06-.01-.09,0,0,0-.01,0-.02,0-.04,0-.07-.01-.09,0-.12,.01-.22,.04-.32,.04-.17,.11-.3,.22-.41l.03-.02,.03-.02s.02,.02,.02,.03v.03s-.01,.02-.01,.02l-.03,.08c-.02,.07-.03,.16-.03,.25,0,.18,.02,.32,.07,.42,.07,.17,.21,.26,.4,.26,.04,0,.07,0,.1-.02,.16-.05,.23-.17,.23-.37v-.07c0-.1-.02-.18-.06-.25-.04-.06-.1-.09-.16-.09s-.11,.03-.14,.1l-.02,.1c-.13,0-.22-.04-.27-.12-.03-.05-.05-.12-.05-.2,0-.1,.03-.18,.08-.24,.05-.06,.13-.09,.23-.09,.18,0,.33,.08,.45,.23,.12,.15,.17,.37,.17,.64,0,.25-.05,.45-.15,.6Z"/>
  <path class="cls-1" d="M18.14,6.63c-.09,.21-.26,.34-.49,.39h-.1c-.12,0-.21-.02-.29-.09-.01,0-.04-.04-.07-.1v.39s0,.06,0,.07c.02,.1,.08,.17,.17,.2l.02,.02s.02,.03,.03,.04c0,0,0,.01-.01,.02h-.07s-.66,0-.66,0c-.05,0-.08,0-.09-.02v-.04s.03-.02,.03-.02c.04-.02,.08-.06,.11-.1,.03-.04,.04-.1,.04-.17v-1.38c0-.07-.02-.13-.07-.17l-.07-.05s-.05-.06-.05-.09c0,0,.02-.01,.05-.02h.06s.04,0,.08,0c.01,0,.03,0,.04,0,.01,0,.02,0,.03,0,.11-.03,.2-.09,.27-.17h.02s.03-.03,.04-.03c0,0,0,.03,.01,.06v.23c.05-.06,.1-.11,.13-.13,.12-.09,.24-.13,.38-.13,.16,0,.29,.07,.39,.21,.1,.14,.15,.34,.15,.6,0,.2-.03,.36-.09,.49Zm-.47-.85c-.05-.06-.11-.09-.2-.09-.04,0-.07,0-.09,.01-.13,.04-.19,.16-.19,.34v.42s.04-.07,.07-.1c.04-.03,.08-.04,.13-.04,.07,0,.11,0,.13,.01,.03,0,.04,.03,.04,.07,0,.04-.02,.06-.06,.06-.06,0-.11,0-.14,.03-.04,.02-.06,.05-.06,.11,0,.04,0,.09,.03,.13,.02,.04,.06,.06,.12,.06,.1,0,.17-.05,.23-.14,.06-.09,.09-.22,.09-.38,0-.24-.04-.4-.12-.49Z"/>
</svg>