<?xml version="1.0" encoding="UTF-8"?>
<svg id="Layer_1" data-name="Layer 1" xmlns="http://www.w3.org/2000/svg" viewBox="0 0 376.7 151.81">
  <defs>
    <style>
      .cls-1 {
        fill: #fff;
        stroke: #fff;
        stroke-miterlimit: 10;
        stroke-width: 2.5px;
      }
    </style>
  </defs>
  <path class="cls-1" d="M36.03,1.31c.07,.05,.08,.11,.1,.19,.19,.89,.47,1.81,.83,2.77,.37,.97,.82,1.97,1.37,3.01,.06,.12,.02,.27-.11,.34-.1,.05-.23,.03-.3-.06-1.67-1.86-3.57-3.27-5.68-4.24-2.11-.96-4.43-1.48-6.98-1.56h-1.33c-.56,.21-1.02,.54-1.33,1.18-.34,.69-.54,1.75-.54,3.4V46.02c0,1.66,.19,2.71,.54,3.4,.32,.65,.79,.98,1.36,1.19,.1,.03,.18,.13,.18,.24,0,.14-.11,.25-.25,.25H15.71c-.1,0-.2-.07-.24-.17-.05-.13,.02-.28,.15-.32,.58-.21,1.05-.54,1.38-1.19,.34-.69,.54-1.75,.54-3.4V6.15c-.02-1.55-.21-2.55-.54-3.21-.32-.64-.77-.96-1.33-1.18h-1.33c-2.55,.08-4.87,.6-6.98,1.56-2.11,.96-4.01,2.38-5.68,4.24-.08,.08-.2,.11-.3,.05-.12-.06-.17-.22-.1-.34,.54-1.04,1-2.04,1.37-3.01,.36-.96,.64-1.88,.83-2.77,.01-.06,.02-.11,.08-.16,.06-.06,.13-.07,.2-.07H35.86c.07,0,.12,0,.18,.05h0Z"/>
  <path class="cls-1" d="M47.64,1.25c.14,0,.25,.11,.25,.25V24.59c1.45-4.66,5.91-6.94,10.51-6.94,1.96,0,3.93,.43,5.63,1.32,1.71,.89,3.15,2.23,4.07,4.05,.68,1.35,1.08,2.95,1.08,4.82v18.38c.02,1.54,.21,2.53,.54,3.19,.33,.66,.8,.98,1.38,1.19,.13,.05,.2,.19,.15,.32-.04,.1-.13,.17-.24,.17h-8.18c-.1,0-.2-.06-.24-.17-.05-.13,.02-.28,.15-.32,.58-.21,1.05-.54,1.38-1.19,.34-.69,.54-1.75,.54-3.4V27.71c0-1.92-.37-3.52-1.01-4.81-.72-1.46-1.77-2.54-2.99-3.26-1.22-.72-2.62-1.07-4.02-1.07-5.09,0-8.65,4.18-8.74,9.29v18.15c0,1.66,.19,2.71,.54,3.4,.32,.65,.79,.98,1.36,1.19,.1,.03,.18,.13,.18,.24,0,.14-.11,.25-.25,.25h-8.18c-.1,0-.2-.06-.24-.17-.05-.13,.02-.28,.15-.32,.58-.21,1.05-.54,1.38-1.19,.34-.69,.54-1.75,.54-3.4V6.14c-.01-1.55-.2-2.55-.54-3.21-.32-.65-.8-.98-1.38-1.19-.13-.05-.2-.19-.15-.32,.04-.1,.13-.17,.24-.17h6.1Z"/>
  <path class="cls-1" d="M104.16,44.54c.08-.11,.24-.13,.35-.05,.11,.08,.13,.24,.05,.35-1.48,1.94-3.37,3.52-5.54,4.61-2.09,1.05-4.43,1.64-6.91,1.64-4.25,0-8.26-1.74-11.23-4.82-3.26-3.38-4.88-7.96-4.62-12.6,.23-4.16,1.95-7.9,4.62-10.67,2.67-2.77,6.28-4.56,10.3-4.8,7.27-.43,13.76,4.26,16,11.22h0s0,.01,0,.01c.26,.8,.71,2.52,.71,3.33,0,.14-.11,.25-.25,.25h-26.4c-.38,1.86-.53,3.75-.44,5.58,.28,5.23,2.63,9.9,7.56,11.51,1.2,.31,2.46,.48,3.75,.48,2.4,0,4.67-.57,6.68-1.58,2.1-1.05,3.93-2.59,5.37-4.47h0Zm-.65-12.03c.08-2.79-.3-5.47-1.22-7.71-.84-2.06-2.13-3.73-3.92-4.74-1.14-.53-2-.71-3.27-.77-4.44-.23-8.06,2.19-10.55,5.77-1.32,1.9-2.32,4.12-2.96,6.44-.09,.33-.18,.67-.25,1.01h22.18Z"/>
  <path class="cls-1" d="M36.61,131.73c-.23,.1-.45,.19-.68,.28-2.66,1.06-5.55,1.63-8.58,1.63-2.02,0-3.98-.26-5.86-.75h-.03c-11.65-3.04-19.05-14.4-18.07-26.33,.5-6.02,3.06-11.43,6.95-15.46,4.1-4.25,9.68-6.98,15.86-7.28,4.78-.23,12.39,1.37,15.74,5.61,1.14,1.45,1.68,3.01,1.62,4.32-.06,1.18-.63,1.98-1.4,2.42-.41,.24-.87,.37-1.34,.4-.47,.03-.94-.04-1.37-.21-.82-.32-1.48-.99-1.67-1.98-.02-.14,.06-.27,.2-.29,.02,0,.04,0,.06,0,.8,.01,1.4-.18,1.81-.53,.39-.33,.62-.81,.7-1.36,.08-.57,0-1.23-.22-1.9-.86-2.61-2.7-3.7-5.09-4.59h0c-8.75-2.4-15.89,.59-20.67,6.08-2.34,2.68-4.12,5.96-5.26,9.5-1.14,3.54-1.64,7.34-1.41,11.05,.52,8.41,4.77,16.4,13.71,20.06,1.84,.48,3.75,.73,5.73,.73,2.96,0,5.79-.57,8.39-1.6,.34-.14,.68-.28,1.02-.43h0c.55-.27,1.11-.68,1.53-1.28,.38-.55,.63-1.28,.63-2.22v-14.12c-.01-1.55-.2-2.55-.54-3.21-.33-.66-.8-.98-1.38-1.19-.13-.05-.2-.19-.15-.32,.04-.1,.13-.17,.24-.17h8.18c.1,0,.2,.06,.24,.17,.05,.13-.02,.27-.15,.32-.58,.21-1.05,.54-1.38,1.19-.34,.69-.54,1.75-.54,3.4v18.47c0,.14-.11,.25-.25,.25-.06,0-.12-.02-.17-.06-.86-.67-1.82-1.05-2.88-1.15-1.07-.1-2.26,.08-3.54,.55h0Z"/>
  <path class="cls-1" d="M77.86,128.73c.01,1.56,.21,2.56,.54,3.23,.32,.66,.8,.98,1.37,1.19,.13,.05,.2,.19,.15,.32-.04,.1-.13,.17-.24,.17h-6.1c-.14,0-.25-.11-.25-.25v-1.84c-.4,.51-.97,.92-1.68,1.24-1.12,.5-2.63,.78-4.52,.86h0c-7.97,.5-12.97-2.2-15.29-5.93-1.02-1.64-1.52-3.49-1.53-5.36,0-1.86,.48-3.74,1.43-5.45,3.37-6.05,12.86-8.8,19.39-5.92,.98,.43,1.74,.97,2.21,1.51v-2.23c0-2.79-.67-5.16-2.21-6.76-1.38-1.44-3.49-2.28-6.48-2.28-.13,0-.25-.11-.25-.25,0-.14,.11-.25,.25-.26h.03c4.45-.14,7.73,.57,9.91,2.14,2.21,1.59,3.28,4.03,3.28,7.35v18.52h0Zm-4.53,1.86v-17.06c-.11-.66-1-1.45-2.41-2.07-5.54-2.45-11.78-.34-13.95,5.56-.55,1.49-.81,3.12-.78,4.75,.03,1.63,.35,3.26,.96,4.75,1.52,3.72,4.83,6.63,9.93,6.64h.02c1.83-.08,3.28-.35,4.34-.82,.93-.42,1.56-1,1.89-1.75Z"/>
  <path class="cls-1" d="M91.32,100.72c.14,0,.25,.11,.25,.25v6.2c.66-2.21,2.01-4.28,3.91-5.46,2.27-1.41,5.65-1.23,8.12-.55,2.25,.62,4.25,1.9,4.35,4.3,.14,3.32-3.65,4.54-6.4,4.46-.13,0-.25-.09-.26-.22-.02-.14,.08-.26,.22-.28,1.97-.24,2.78-2.06,2.62-3.82-.13-1.37-.76-2.5-1.7-3.28-1.94-1.59-4.88-1.44-6.89-.08-2.33,1.57-3.64,4.63-3.97,7.44v18.86c0,1.66,.19,2.71,.54,3.4,.32,.65,.79,.98,1.36,1.19,.1,.03,.18,.13,.18,.24,0,.14-.11,.25-.25,.25h-8.18c-.1,0-.2-.06-.24-.17-.05-.13,.02-.28,.15-.32,.58-.21,1.05-.54,1.38-1.19,.34-.69,.54-1.75,.54-3.4v-22.94c-.02-1.55-.21-2.55-.54-3.21-.33-.66-.8-.98-1.38-1.19-.13-.05-.2-.19-.15-.32,.04-.1,.13-.17,.24-.17h6.1Z"/>
  <path class="cls-1" d="M139.16,83.8c.14,0,.25,.11,.25,.25v44.68c.01,1.56,.21,2.56,.54,3.23,.32,.66,.8,.98,1.37,1.19,.13,.05,.2,.19,.15,.32-.04,.1-.13,.17-.24,.17h-6.1c-.14,0-.25-.11-.25-.25v-2.69c-.41,.7-.99,1.27-1.73,1.72-2.27,1.38-6.66,1.48-9.25,1.13-5.45-.73-9.09-3.76-11.07-7.71-1.18-2.36-1.77-5.04-1.79-7.75-.02-2.71,.52-5.45,1.59-7.93,1.78-4.13,5.03-7.52,9.61-8.84,3.26-.93,7.4-.88,10.37,.89,1.02,.61,1.8,1.34,2.27,2.08v-15.59c-.02-1.55-.21-2.55-.54-3.21-.33-.66-.8-.98-1.38-1.19-.13-.05-.2-.19-.15-.32,.04-.1,.13-.17,.24-.17h6.11Zm-4.28,45.67v-23.83c-.1-.97-1.04-2.12-2.53-3.01-2.13-1.27-4.71-1.69-7.11-1.09-2.36,.59-4.21,2.02-5.56,3.96-2.01,2.89-2.94,6.9-2.88,10.98,.07,4.39,1.28,8.86,3.53,12.06,2.72,3.88,6.7,5.47,11.09,4.1,.55-.17,1.03-.38,1.46-.64,.98-.59,1.64-1.43,1.99-2.52h0Z"/>
  <path class="cls-1" d="M174.61,127.09c.08-.11,.24-.13,.35-.05,.11,.08,.13,.24,.05,.35-1.48,1.94-3.37,3.52-5.54,4.61-2.09,1.05-4.43,1.64-6.91,1.64-4.25,0-8.26-1.74-11.23-4.82-3.26-3.38-4.88-7.96-4.62-12.6,.23-4.16,1.95-7.9,4.62-10.67,2.67-2.77,6.28-4.56,10.3-4.8,7.27-.43,13.76,4.26,16,11.22h0s0,.01,0,.01c.26,.8,.71,2.52,.71,3.33,0,.14-.11,.25-.25,.25h-26.4c-.38,1.86-.53,3.75-.44,5.58,.28,5.23,2.63,9.9,7.56,11.51,1.2,.31,2.46,.48,3.75,.48,2.4,0,4.67-.57,6.68-1.58,2.1-1.05,3.93-2.59,5.37-4.47h0Zm-.65-12.03c.08-2.79-.3-5.47-1.22-7.71-.84-2.06-2.13-3.73-3.92-4.74-1.14-.53-2-.71-3.27-.77-4.44-.23-8.06,2.19-10.55,5.77-1.32,1.9-2.32,4.12-2.96,6.44-.09,.33-.18,.67-.25,1.01h22.18Z"/>
  <path class="cls-1" d="M185.18,100.72h4.03c.14,0,.25,.11,.25,.25v5.21c1.74-4.05,5.95-5.98,10.16-5.98,1.96,0,3.92,.43,5.62,1.32,1.71,.89,3.15,2.23,4.08,4.05,.68,1.35,1.08,2.95,1.08,4.82v18.38c.02,1.54,.21,2.53,.54,3.19,.32,.66,.8,.98,1.38,1.19,.13,.05,.2,.19,.15,.32-.04,.1-.13,.17-.24,.17h-8.18c-.1,0-.2-.06-.24-.17-.05-.13,.02-.28,.15-.32,.58-.21,1.05-.54,1.38-1.19,.34-.69,.54-1.75,.54-3.4v-18.3c0-1.92-.37-3.52-1.01-4.81-.72-1.46-1.77-2.54-2.99-3.26-1.22-.72-2.62-1.07-4.02-1.07-3.99,0-7.37,2.73-8.39,6.62v20.82c0,1.66,.19,2.71,.54,3.4,.32,.65,.79,.98,1.36,1.19,.1,.03,.18,.13,.18,.24,0,.14-.11,.25-.25,.25h-8.18c-.1,0-.2-.06-.24-.17-.05-.13,.02-.28,.15-.32,.58-.21,1.05-.54,1.38-1.19,.34-.69,.54-1.75,.54-3.4v-22.94c-.02-1.55-.21-2.55-.54-3.21-.33-.66-.8-.98-1.38-1.19-.13-.05-.2-.19-.15-.32,.04-.1,.13-.17,.24-.17h2.07Z"/>
  <path class="cls-1" d="M255.39,132.6c1.87-.43,3.44-1.14,4.69-2.04,2.56-1.83,3.85-4.43,3.96-7.01,.28-6.82-6.5-9.79-13.5-12.84-.69-.3-1.39-.61-2.1-.92-3.44-1.54-6.77-3.2-9.2-5.45-1.69-1.57-2.94-3.43-3.48-5.72h0c-.19-.82-.3-1.7-.3-2.65,0-9.38,10.34-13.01,18.32-11.99,2.47,.32,4.96,1.08,7.04,2.45,1.6,1.05,2.88,2.42,3.68,4.09,.29,.59,.51,1.26,.64,1.94,.13,.65,.18,1.3,.12,1.93-.15,1.82-1.11,2.91-2.23,3.32-.46,.17-.96,.23-1.43,.18-.47-.05-.93-.22-1.33-.49-.88-.6-1.44-1.72-1.17-3.29,0-.06,.04-.11,.08-.15,.1-.09,.26-.08,.35,.03,.24,.28,.57,.46,.93,.52,.33,.06,.68,.02,1-.1,.32-.12,.61-.34,.81-.65,.24-.35,.38-.83,.34-1.43-.11-1.67-.94-3.53-2.46-5.02-1.87-1.83-4.04-2.53-6.46-2.85-.93-.12-1.88-.18-2.85-.17-3.37,.29-6.04,1.37-7.96,2.86-2.15,1.67-3.37,3.85-3.58,6.03-.18,1.95,.53,4.04,2.1,6.05,1.51,1.94,3.83,3.81,6.92,5.41,1.54,.8,3.15,1.55,4.78,2.3,7.66,3.55,15.45,7.16,15.1,15.97-.12,3.13-1.61,6.12-4.96,8.13-5.12,3.07-14.94,3.09-20.75,1.64-2.52-.63-4.84-1.61-6.97-2.93-.07-.04-.12-.11-.13-.2l-.7-8.41c0-.12,.08-.24,.2-.27,.14-.03,.27,.06,.29,.2,.74,3.74,2.65,6.58,5.19,8.56,1.63,1.26,3.52,2.17,5.54,2.73,2.94,.81,6.46,.9,9.43,.22h0Z"/>
  <path class="cls-1" d="M279.46,83.8c.14,0,.25,.11,.25,.25v23.09c1.45-4.66,5.91-6.94,10.51-6.94,1.96,0,3.93,.43,5.63,1.32,1.71,.89,3.15,2.23,4.07,4.05,.68,1.35,1.08,2.95,1.08,4.82v18.38c.02,1.54,.21,2.53,.54,3.19,.33,.66,.8,.98,1.38,1.19,.13,.05,.2,.19,.15,.32-.04,.1-.13,.17-.24,.17h-8.18c-.1,0-.2-.06-.24-.17-.05-.13,.02-.28,.15-.32,.58-.21,1.05-.54,1.38-1.19,.34-.69,.54-1.75,.54-3.4v-18.3c0-1.92-.37-3.52-1.01-4.81-.72-1.46-1.77-2.54-2.99-3.26-1.22-.72-2.62-1.07-4.02-1.07-5.09,0-8.65,4.18-8.74,9.29v18.15c0,1.66,.19,2.71,.54,3.4,.32,.65,.79,.98,1.36,1.19,.1,.03,.18,.13,.18,.24,0,.14-.11,.25-.25,.25h-8.18c-.1,0-.2-.06-.24-.17-.05-.13,.02-.28,.15-.32,.58-.21,1.05-.54,1.38-1.19,.34-.69,.54-1.75,.54-3.4v-39.86c-.01-1.55-.2-2.55-.54-3.21-.32-.66-.8-.98-1.38-1.19-.13-.05-.2-.19-.15-.32,.04-.1,.13-.17,.24-.17h6.1Z"/>
  <path class="cls-1" d="M339.74,118.76c-.36,3.91-2.04,7.43-4.58,10.05-2.87,2.98-6.84,4.82-11.23,4.82s-8.26-1.74-11.23-4.82c-3.54-3.67-5.14-8.74-4.52-13.74,.46-3.7,2.1-7.01,4.52-9.52,2.48-2.58,5.79-4.3,9.47-4.72,.94-.11,1.88-.13,2.81-.06,9.03,.61,15.59,8.89,14.76,18h0Zm-7.54,8.13c1.08-1.93,1.91-4.17,2.45-6.51,.53-2.33,.77-4.76,.67-7.06-.2-4.67-1.79-8.84-5.12-10.72-1.24-.58-2.26-.76-3.64-.79-4.27-.08-7.76,2.3-10.18,5.78-1.32,1.9-2.32,4.12-2.96,6.44-.64,2.33-.93,4.77-.8,7.09,.28,5.23,2.63,9.91,7.56,11.51,.7,.18,1.42,.32,2.16,.4,4.61,.49,7.62-2.14,9.86-6.16h0Z"/>
  <path class="cls-1" d="M345.25,150.56c-.1,0-.2-.06-.24-.17-.05-.13,.02-.27,.15-.32,.58-.21,1.05-.54,1.38-1.19,.34-.69,.54-1.75,.54-3.4v-39.85c-.01-1.56-.2-2.56-.54-3.23-.32-.66-.8-.98-1.38-1.19-.13-.05-.2-.19-.15-.32,.04-.1,.13-.17,.24-.17h6.1c.14,0,.25,.11,.25,.25v2.69c.41-.7,.99-1.27,1.73-1.72,3.9-2.36,11.35-1.29,14.85,.71,2.46,1.41,4.27,3.47,5.47,5.87,1.18,2.36,1.77,5.04,1.79,7.75,.02,2.71-.52,5.45-1.59,7.93-3.21,7.43-12.91,12.17-19.99,7.95-1.02-.6-1.8-1.34-2.27-2.08v15.59c.02,1.55,.21,2.55,.54,3.21,.33,.65,.8,.98,1.38,1.19,.13,.05,.2,.19,.15,.32-.04,.1-.13,.17-.24,.17h-8.18Zm6.35-45.67v23.83c.1,.97,1.04,2.12,2.53,3.01,1.31,.78,3.03,1.34,5,1.38,3.4-.12,5.94-1.77,7.67-4.25,2.01-2.88,2.94-6.9,2.88-10.98-.07-4.39-1.28-8.86-3.53-12.06-2.08-2.96-5.13-4.9-8.81-4.54-1.54,.15-2.79,.51-3.74,1.08-.98,.59-1.64,1.43-1.99,2.52h0Z"/>
</svg>