<svg width="595" height="318" viewBox="0 0 595 318" fill="none" xmlns="http://www.w3.org/2000/svg">
<path d="M85.2391 158.6H99.1891C101.522 158.6 103.772 158.967 105.939 159.7C108.106 160.4 110.022 161.483 111.689 162.95C113.356 164.417 114.689 166.267 115.689 168.5C116.689 170.7 117.189 173.3 117.189 176.3C117.189 179.333 116.606 181.967 115.439 184.2C114.306 186.4 112.822 188.233 110.989 189.7C109.189 191.133 107.172 192.217 104.939 192.95C102.739 193.65 100.572 194 98.4391 194H85.2391V158.6ZM96.2391 188.3C98.2057 188.3 100.056 188.083 101.789 187.65C103.556 187.183 105.089 186.483 106.389 185.55C107.689 184.583 108.706 183.35 109.439 181.85C110.206 180.317 110.589 178.467 110.589 176.3C110.589 174.167 110.256 172.333 109.589 170.8C108.922 169.267 107.989 168.033 106.789 167.1C105.622 166.133 104.222 165.433 102.589 165C100.989 164.533 99.2224 164.3 97.2891 164.3H91.5391V188.3H96.2391ZM127.429 184.1C127.629 185.9 128.329 187.3 129.529 188.3C130.729 189.3 132.179 189.8 133.879 189.8C135.379 189.8 136.629 189.5 137.629 188.9C138.662 188.267 139.562 187.483 140.329 186.55L144.629 189.8C143.229 191.533 141.662 192.767 139.929 193.5C138.195 194.233 136.379 194.6 134.479 194.6C132.679 194.6 130.979 194.3 129.379 193.7C127.779 193.1 126.395 192.25 125.229 191.15C124.062 190.05 123.129 188.733 122.429 187.2C121.762 185.633 121.429 183.9 121.429 182C121.429 180.1 121.762 178.383 122.429 176.85C123.129 175.283 124.062 173.95 125.229 172.85C126.395 171.75 127.779 170.9 129.379 170.3C130.979 169.7 132.679 169.4 134.479 169.4C136.145 169.4 137.662 169.7 139.029 170.3C140.429 170.867 141.612 171.7 142.579 172.8C143.579 173.9 144.345 175.267 144.879 176.9C145.445 178.5 145.729 180.35 145.729 182.45V184.1H127.429ZM139.729 179.6C139.695 177.833 139.145 176.45 138.079 175.45C137.012 174.417 135.529 173.9 133.629 173.9C131.829 173.9 130.395 174.417 129.329 175.45C128.295 176.483 127.662 177.867 127.429 179.6H139.729ZM167.739 177.2C167.039 176.467 166.306 175.883 165.539 175.45C164.773 175.017 163.989 174.8 163.189 174.8C162.089 174.8 161.106 175 160.239 175.4C159.373 175.8 158.623 176.333 157.989 177C157.389 177.667 156.923 178.433 156.589 179.3C156.289 180.167 156.139 181.067 156.139 182C156.139 182.933 156.289 183.833 156.589 184.7C156.923 185.567 157.389 186.333 157.989 187C158.623 187.667 159.373 188.2 160.239 188.6C161.106 189 162.089 189.2 163.189 189.2C164.123 189.2 164.989 189.017 165.789 188.65C166.589 188.25 167.273 187.683 167.839 186.95L171.839 191.25C171.239 191.85 170.539 192.367 169.739 192.8C168.973 193.233 168.189 193.583 167.389 193.85C166.589 194.117 165.823 194.3 165.089 194.4C164.356 194.533 163.723 194.6 163.189 194.6C161.389 194.6 159.689 194.3 158.089 193.7C156.489 193.1 155.106 192.25 153.939 191.15C152.773 190.05 151.839 188.733 151.139 187.2C150.473 185.633 150.139 183.9 150.139 182C150.139 180.1 150.473 178.383 151.139 176.85C151.839 175.283 152.773 173.95 153.939 172.85C155.106 171.75 156.489 170.9 158.089 170.3C159.689 169.7 161.389 169.4 163.189 169.4C164.723 169.4 166.256 169.7 167.789 170.3C169.356 170.867 170.723 171.783 171.889 173.05L167.739 177.2ZM174.261 182C174.261 180.1 174.594 178.383 175.261 176.85C175.961 175.283 176.894 173.95 178.061 172.85C179.227 171.75 180.611 170.9 182.211 170.3C183.811 169.7 185.511 169.4 187.311 169.4C189.111 169.4 190.811 169.7 192.411 170.3C194.011 170.9 195.394 171.75 196.561 172.85C197.727 173.95 198.644 175.283 199.311 176.85C200.011 178.383 200.361 180.1 200.361 182C200.361 183.9 200.011 185.633 199.311 187.2C198.644 188.733 197.727 190.05 196.561 191.15C195.394 192.25 194.011 193.1 192.411 193.7C190.811 194.3 189.111 194.6 187.311 194.6C185.511 194.6 183.811 194.3 182.211 193.7C180.611 193.1 179.227 192.25 178.061 191.15C176.894 190.05 175.961 188.733 175.261 187.2C174.594 185.633 174.261 183.9 174.261 182ZM180.261 182C180.261 182.933 180.411 183.833 180.711 184.7C181.044 185.567 181.511 186.333 182.111 187C182.744 187.667 183.494 188.2 184.361 188.6C185.227 189 186.211 189.2 187.311 189.2C188.411 189.2 189.394 189 190.261 188.6C191.127 188.2 191.861 187.667 192.461 187C193.094 186.333 193.561 185.567 193.861 184.7C194.194 183.833 194.361 182.933 194.361 182C194.361 181.067 194.194 180.167 193.861 179.3C193.561 178.433 193.094 177.667 192.461 177C191.861 176.333 191.127 175.8 190.261 175.4C189.394 175 188.411 174.8 187.311 174.8C186.211 174.8 185.227 175 184.361 175.4C183.494 175.8 182.744 176.333 182.111 177C181.511 177.667 181.044 178.433 180.711 179.3C180.411 180.167 180.261 181.067 180.261 182ZM205.978 170H211.978V173.8H212.078C212.745 172.4 213.695 171.317 214.928 170.55C216.161 169.783 217.578 169.4 219.178 169.4C219.545 169.4 219.895 169.433 220.228 169.5C220.595 169.567 220.961 169.65 221.328 169.75V175.55C220.828 175.417 220.328 175.317 219.828 175.25C219.361 175.15 218.895 175.1 218.428 175.1C217.028 175.1 215.895 175.367 215.028 175.9C214.195 176.4 213.545 176.983 213.078 177.65C212.645 178.317 212.345 178.983 212.178 179.65C212.045 180.317 211.978 180.817 211.978 181.15V194H205.978V170ZM240.412 190.7H240.262C239.395 192.067 238.295 193.067 236.962 193.7C235.628 194.3 234.162 194.6 232.562 194.6C231.462 194.6 230.378 194.45 229.312 194.15C228.278 193.85 227.345 193.4 226.512 192.8C225.712 192.2 225.062 191.45 224.562 190.55C224.062 189.65 223.812 188.6 223.812 187.4C223.812 186.1 224.045 185 224.512 184.1C224.978 183.167 225.595 182.4 226.362 181.8C227.162 181.167 228.078 180.667 229.112 180.3C230.145 179.933 231.212 179.667 232.312 179.5C233.445 179.3 234.578 179.183 235.712 179.15C236.845 179.083 237.912 179.05 238.912 179.05H240.412V178.4C240.412 176.9 239.895 175.783 238.862 175.05C237.828 174.283 236.512 173.9 234.912 173.9C233.645 173.9 232.462 174.133 231.362 174.6C230.262 175.033 229.312 175.633 228.512 176.4L225.362 173.25C226.695 171.883 228.245 170.9 230.012 170.3C231.812 169.7 233.662 169.4 235.562 169.4C237.262 169.4 238.695 169.6 239.862 170C241.028 170.367 241.995 170.85 242.762 171.45C243.528 172.05 244.112 172.75 244.512 173.55C244.945 174.317 245.245 175.1 245.412 175.9C245.612 176.7 245.728 177.483 245.762 178.25C245.795 178.983 245.812 179.633 245.812 180.2V194H240.412V190.7ZM240.062 183.25H238.812C237.978 183.25 237.045 183.283 236.012 183.35C234.978 183.417 233.995 183.583 233.062 183.85C232.162 184.083 231.395 184.45 230.762 184.95C230.128 185.417 229.812 186.083 229.812 186.95C229.812 187.517 229.928 188 230.162 188.4C230.428 188.767 230.762 189.083 231.162 189.35C231.562 189.617 232.012 189.817 232.512 189.95C233.012 190.05 233.512 190.1 234.012 190.1C236.078 190.1 237.595 189.617 238.562 188.65C239.562 187.65 240.062 186.3 240.062 184.6V183.25ZM249.467 175.1V170H254.417V163.05H260.417V170H267.017V175.1H260.417V185.6C260.417 186.8 260.634 187.75 261.067 188.45C261.534 189.15 262.434 189.5 263.767 189.5C264.301 189.5 264.884 189.45 265.517 189.35C266.151 189.217 266.651 189.017 267.017 188.75V193.8C266.384 194.1 265.601 194.3 264.667 194.4C263.767 194.533 262.967 194.6 262.267 194.6C260.667 194.6 259.351 194.417 258.317 194.05C257.317 193.717 256.517 193.2 255.917 192.5C255.351 191.767 254.951 190.867 254.717 189.8C254.517 188.733 254.417 187.5 254.417 186.1V175.1H249.467ZM276.501 184.1C276.701 185.9 277.401 187.3 278.601 188.3C279.801 189.3 281.251 189.8 282.951 189.8C284.451 189.8 285.701 189.5 286.701 188.9C287.734 188.267 288.634 187.483 289.401 186.55L293.701 189.8C292.301 191.533 290.734 192.767 289.001 193.5C287.267 194.233 285.451 194.6 283.551 194.6C281.751 194.6 280.051 194.3 278.451 193.7C276.851 193.1 275.467 192.25 274.301 191.15C273.134 190.05 272.201 188.733 271.501 187.2C270.834 185.633 270.501 183.9 270.501 182C270.501 180.1 270.834 178.383 271.501 176.85C272.201 175.283 273.134 173.95 274.301 172.85C275.467 171.75 276.851 170.9 278.451 170.3C280.051 169.7 281.751 169.4 283.551 169.4C285.217 169.4 286.734 169.7 288.101 170.3C289.501 170.867 290.684 171.7 291.651 172.8C292.651 173.9 293.417 175.267 293.951 176.9C294.517 178.5 294.801 180.35 294.801 182.45V184.1H276.501ZM288.801 179.6C288.767 177.833 288.217 176.45 287.151 175.45C286.084 174.417 284.601 173.9 282.701 173.9C280.901 173.9 279.467 174.417 278.401 175.45C277.367 176.483 276.734 177.867 276.501 179.6H288.801ZM311.957 170H318.457L323.657 186.8H323.757L328.607 170H335.107L340.307 186.8H340.407L345.407 170H351.457L343.307 194H337.357L331.657 177.6H331.557L326.507 194H320.307L311.957 170ZM355.102 170H361.102V194H355.102V170ZM354.252 161.85C354.252 160.883 354.602 160.05 355.302 159.35C356.035 158.617 356.952 158.25 358.052 158.25C359.152 158.25 360.068 158.6 360.802 159.3C361.568 159.967 361.952 160.817 361.952 161.85C361.952 162.883 361.568 163.75 360.802 164.45C360.068 165.117 359.152 165.45 358.052 165.45C356.952 165.45 356.035 165.1 355.302 164.4C354.602 163.667 354.252 162.817 354.252 161.85ZM365.19 175.1V170H370.14V163.05H376.14V170H382.74V175.1H376.14V185.6C376.14 186.8 376.357 187.75 376.79 188.45C377.257 189.15 378.157 189.5 379.49 189.5C380.023 189.5 380.607 189.45 381.24 189.35C381.873 189.217 382.373 189.017 382.74 188.75V193.8C382.107 194.1 381.323 194.3 380.39 194.4C379.49 194.533 378.69 194.6 377.99 194.6C376.39 194.6 375.073 194.417 374.04 194.05C373.04 193.717 372.24 193.2 371.64 192.5C371.073 191.767 370.673 190.867 370.44 189.8C370.24 188.733 370.14 187.5 370.14 186.1V175.1H365.19ZM393.472 173.35H393.572C394.039 172.35 394.856 171.45 396.022 170.65C397.222 169.817 398.756 169.4 400.622 169.4C402.222 169.4 403.572 169.667 404.672 170.2C405.806 170.733 406.722 171.433 407.422 172.3C408.122 173.167 408.622 174.167 408.922 175.3C409.222 176.433 409.372 177.617 409.372 178.85V194H403.372V181.85C403.372 181.183 403.339 180.45 403.272 179.65C403.206 178.817 403.022 178.05 402.722 177.35C402.456 176.617 402.022 176.017 401.422 175.55C400.822 175.05 400.006 174.8 398.972 174.8C397.972 174.8 397.122 174.967 396.422 175.3C395.756 175.633 395.189 176.083 394.722 176.65C394.289 177.217 393.972 177.867 393.772 178.6C393.572 179.333 393.472 180.1 393.472 180.9V194H387.472V156.2H393.472V173.35ZM438.778 164.3H427.928V158.6H455.928V164.3H445.078V194H438.778V164.3ZM465.689 173.35H465.789C466.256 172.35 467.072 171.45 468.239 170.65C469.439 169.817 470.972 169.4 472.839 169.4C474.439 169.4 475.789 169.667 476.889 170.2C478.022 170.733 478.939 171.433 479.639 172.3C480.339 173.167 480.839 174.167 481.139 175.3C481.439 176.433 481.589 177.617 481.589 178.85V194H475.589V181.85C475.589 181.183 475.556 180.45 475.489 179.65C475.422 178.817 475.239 178.05 474.939 177.35C474.672 176.617 474.239 176.017 473.639 175.55C473.039 175.05 472.222 174.8 471.189 174.8C470.189 174.8 469.339 174.967 468.639 175.3C467.972 175.633 467.406 176.083 466.939 176.65C466.506 177.217 466.189 177.867 465.989 178.6C465.789 179.333 465.689 180.1 465.689 180.9V194H459.689V156.2H465.689V173.35ZM493.2 184.1C493.4 185.9 494.1 187.3 495.3 188.3C496.5 189.3 497.95 189.8 499.65 189.8C501.15 189.8 502.4 189.5 503.4 188.9C504.433 188.267 505.333 187.483 506.1 186.55L510.4 189.8C509 191.533 507.433 192.767 505.7 193.5C503.967 194.233 502.15 194.6 500.25 194.6C498.45 194.6 496.75 194.3 495.15 193.7C493.55 193.1 492.167 192.25 491 191.15C489.833 190.05 488.9 188.733 488.2 187.2C487.533 185.633 487.2 183.9 487.2 182C487.2 180.1 487.533 178.383 488.2 176.85C488.9 175.283 489.833 173.95 491 172.85C492.167 171.75 493.55 170.9 495.15 170.3C496.75 169.7 498.45 169.4 500.25 169.4C501.917 169.4 503.433 169.7 504.8 170.3C506.2 170.867 507.383 171.7 508.35 172.8C509.35 173.9 510.117 175.267 510.65 176.9C511.217 178.5 511.5 180.35 511.5 182.45V184.1H493.2ZM505.5 179.6C505.467 177.833 504.917 176.45 503.85 175.45C502.783 174.417 501.3 173.9 499.4 173.9C497.6 173.9 496.167 174.417 495.1 175.45C494.067 176.483 493.433 177.867 493.2 179.6H505.5ZM179.165 259.4C174.798 261.733 169.915 262.9 164.515 262.9C161.781 262.9 159.265 262.467 156.965 261.6C154.698 260.7 152.731 259.45 151.065 257.85C149.431 256.217 148.148 254.267 147.215 252C146.281 249.733 145.815 247.217 145.815 244.45C145.815 241.617 146.281 239.05 147.215 236.75C148.148 234.417 149.431 232.433 151.065 230.8C152.731 229.167 154.698 227.917 156.965 227.05C159.265 226.15 161.781 225.7 164.515 225.7C167.215 225.7 169.748 226.033 172.115 226.7C174.481 227.333 176.598 228.483 178.465 230.15L173.815 234.85C172.681 233.75 171.298 232.9 169.665 232.3C168.065 231.7 166.365 231.4 164.565 231.4C162.731 231.4 161.065 231.733 159.565 232.4C158.098 233.033 156.831 233.933 155.765 235.1C154.698 236.233 153.865 237.567 153.265 239.1C152.698 240.633 152.415 242.283 152.415 244.05C152.415 245.95 152.698 247.7 153.265 249.3C153.865 250.9 154.698 252.283 155.765 253.45C156.831 254.617 158.098 255.533 159.565 256.2C161.065 256.867 162.731 257.2 164.565 257.2C166.165 257.2 167.665 257.05 169.065 256.75C170.498 256.45 171.765 255.983 172.865 255.35V247H165.615V241.3H179.165V259.4ZM201.081 258.7H200.931C200.064 260.067 198.964 261.067 197.631 261.7C196.297 262.3 194.831 262.6 193.231 262.6C192.131 262.6 191.047 262.45 189.981 262.15C188.947 261.85 188.014 261.4 187.181 260.8C186.381 260.2 185.731 259.45 185.231 258.55C184.731 257.65 184.481 256.6 184.481 255.4C184.481 254.1 184.714 253 185.181 252.1C185.647 251.167 186.264 250.4 187.031 249.8C187.831 249.167 188.747 248.667 189.781 248.3C190.814 247.933 191.881 247.667 192.981 247.5C194.114 247.3 195.247 247.183 196.381 247.15C197.514 247.083 198.581 247.05 199.581 247.05H201.081V246.4C201.081 244.9 200.564 243.783 199.531 243.05C198.497 242.283 197.181 241.9 195.581 241.9C194.314 241.9 193.131 242.133 192.031 242.6C190.931 243.033 189.981 243.633 189.181 244.4L186.031 241.25C187.364 239.883 188.914 238.9 190.681 238.3C192.481 237.7 194.331 237.4 196.231 237.4C197.931 237.4 199.364 237.6 200.531 238C201.697 238.367 202.664 238.85 203.431 239.45C204.197 240.05 204.781 240.75 205.181 241.55C205.614 242.317 205.914 243.1 206.081 243.9C206.281 244.7 206.397 245.483 206.431 246.25C206.464 246.983 206.481 247.633 206.481 248.2V262H201.081V258.7ZM200.731 251.25H199.481C198.647 251.25 197.714 251.283 196.681 251.35C195.647 251.417 194.664 251.583 193.731 251.85C192.831 252.083 192.064 252.45 191.431 252.95C190.797 253.417 190.481 254.083 190.481 254.95C190.481 255.517 190.597 256 190.831 256.4C191.097 256.767 191.431 257.083 191.831 257.35C192.231 257.617 192.681 257.817 193.181 257.95C193.681 258.05 194.181 258.1 194.681 258.1C196.747 258.1 198.264 257.617 199.231 256.65C200.231 255.65 200.731 254.3 200.731 252.6V251.25ZM212.936 238H218.936V241.8H219.036C219.703 240.4 220.653 239.317 221.886 238.55C223.119 237.783 224.536 237.4 226.136 237.4C226.503 237.4 226.853 237.433 227.186 237.5C227.553 237.567 227.919 237.65 228.286 237.75V243.55C227.786 243.417 227.286 243.317 226.786 243.25C226.319 243.15 225.853 243.1 225.386 243.1C223.986 243.1 222.853 243.367 221.986 243.9C221.153 244.4 220.503 244.983 220.036 245.65C219.603 246.317 219.303 246.983 219.136 247.65C219.003 248.317 218.936 248.817 218.936 249.15V262H212.936V238ZM250.491 258.4H250.391C249.524 259.867 248.357 260.933 246.891 261.6C245.424 262.267 243.841 262.6 242.141 262.6C240.274 262.6 238.607 262.283 237.141 261.65C235.707 260.983 234.474 260.083 233.441 258.95C232.407 257.817 231.624 256.483 231.091 254.95C230.557 253.417 230.291 251.767 230.291 250C230.291 248.233 230.574 246.583 231.141 245.05C231.707 243.517 232.491 242.183 233.491 241.05C234.524 239.917 235.757 239.033 237.191 238.4C238.624 237.733 240.191 237.4 241.891 237.4C243.024 237.4 244.024 237.517 244.891 237.75C245.757 237.983 246.524 238.283 247.191 238.65C247.857 239.017 248.424 239.417 248.891 239.85C249.357 240.25 249.741 240.65 250.041 241.05H250.191V224.2H256.191V262H250.491V258.4ZM236.291 250C236.291 250.933 236.441 251.833 236.741 252.7C237.074 253.567 237.541 254.333 238.141 255C238.774 255.667 239.524 256.2 240.391 256.6C241.257 257 242.241 257.2 243.341 257.2C244.441 257.2 245.424 257 246.291 256.6C247.157 256.2 247.891 255.667 248.491 255C249.124 254.333 249.591 253.567 249.891 252.7C250.224 251.833 250.391 250.933 250.391 250C250.391 249.067 250.224 248.167 249.891 247.3C249.591 246.433 249.124 245.667 248.491 245C247.891 244.333 247.157 243.8 246.291 243.4C245.424 243 244.441 242.8 243.341 242.8C242.241 242.8 241.257 243 240.391 243.4C239.524 243.8 238.774 244.333 238.141 245C237.541 245.667 237.074 246.433 236.741 247.3C236.441 248.167 236.291 249.067 236.291 250ZM267.785 252.1C267.985 253.9 268.685 255.3 269.885 256.3C271.085 257.3 272.535 257.8 274.235 257.8C275.735 257.8 276.985 257.5 277.985 256.9C279.018 256.267 279.918 255.483 280.685 254.55L284.985 257.8C283.585 259.533 282.018 260.767 280.285 261.5C278.552 262.233 276.735 262.6 274.835 262.6C273.035 262.6 271.335 262.3 269.735 261.7C268.135 261.1 266.752 260.25 265.585 259.15C264.418 258.05 263.485 256.733 262.785 255.2C262.118 253.633 261.785 251.9 261.785 250C261.785 248.1 262.118 246.383 262.785 244.85C263.485 243.283 264.418 241.95 265.585 240.85C266.752 239.75 268.135 238.9 269.735 238.3C271.335 237.7 273.035 237.4 274.835 237.4C276.502 237.4 278.018 237.7 279.385 238.3C280.785 238.867 281.968 239.7 282.935 240.8C283.935 241.9 284.702 243.267 285.235 244.9C285.802 246.5 286.085 248.35 286.085 250.45V252.1H267.785ZM280.085 247.6C280.052 245.833 279.502 244.45 278.435 243.45C277.368 242.417 275.885 241.9 273.985 241.9C272.185 241.9 270.752 242.417 269.685 243.45C268.652 244.483 268.018 245.867 267.785 247.6H280.085ZM291.696 238H297.396V241.85H297.496C298.063 240.65 298.929 239.617 300.096 238.75C301.263 237.85 302.846 237.4 304.846 237.4C306.446 237.4 307.796 237.667 308.896 238.2C310.029 238.733 310.946 239.433 311.646 240.3C312.346 241.167 312.846 242.167 313.146 243.3C313.446 244.433 313.596 245.617 313.596 246.85V262H307.596V249.85C307.596 249.183 307.563 248.45 307.496 247.65C307.429 246.817 307.246 246.05 306.946 245.35C306.679 244.617 306.246 244.017 305.646 243.55C305.046 243.05 304.229 242.8 303.196 242.8C302.196 242.8 301.346 242.967 300.646 243.3C299.979 243.633 299.413 244.083 298.946 244.65C298.513 245.217 298.196 245.867 297.996 246.6C297.796 247.333 297.696 248.1 297.696 248.9V262H291.696V238ZM353.102 234.2C352.435 233.233 351.535 232.533 350.402 232.1C349.302 231.633 348.135 231.4 346.902 231.4C346.168 231.4 345.452 231.483 344.752 231.65C344.085 231.817 343.468 232.083 342.902 232.45C342.368 232.817 341.935 233.3 341.602 233.9C341.268 234.467 341.102 235.15 341.102 235.95C341.102 237.15 341.518 238.067 342.352 238.7C343.185 239.333 344.218 239.883 345.452 240.35C346.685 240.817 348.035 241.267 349.502 241.7C350.968 242.133 352.318 242.733 353.552 243.5C354.785 244.267 355.818 245.283 356.652 246.55C357.485 247.817 357.902 249.5 357.902 251.6C357.902 253.5 357.552 255.167 356.852 256.6C356.152 258 355.202 259.167 354.002 260.1C352.835 261.033 351.468 261.733 349.902 262.2C348.335 262.667 346.685 262.9 344.952 262.9C342.752 262.9 340.635 262.533 338.602 261.8C336.568 261.067 334.818 259.833 333.352 258.1L338.102 253.5C338.868 254.667 339.868 255.583 341.102 256.25C342.368 256.883 343.702 257.2 345.102 257.2C345.835 257.2 346.568 257.1 347.302 256.9C348.035 256.7 348.702 256.4 349.302 256C349.902 255.6 350.385 255.1 350.752 254.5C351.118 253.867 351.302 253.15 351.302 252.35C351.302 251.05 350.885 250.05 350.052 249.35C349.218 248.65 348.185 248.067 346.952 247.6C345.718 247.1 344.368 246.633 342.902 246.2C341.435 245.767 340.085 245.183 338.852 244.45C337.618 243.683 336.585 242.683 335.752 241.45C334.918 240.183 334.502 238.5 334.502 236.4C334.502 234.567 334.868 232.983 335.602 231.65C336.368 230.317 337.352 229.217 338.552 228.35C339.785 227.45 341.185 226.783 342.752 226.35C344.318 225.917 345.918 225.7 347.552 225.7C349.418 225.7 351.218 225.983 352.952 226.55C354.718 227.117 356.302 228.05 357.702 229.35L353.102 234.2ZM369.913 241.35H370.013C370.479 240.35 371.296 239.45 372.463 238.65C373.663 237.817 375.196 237.4 377.063 237.4C378.663 237.4 380.013 237.667 381.113 238.2C382.246 238.733 383.163 239.433 383.863 240.3C384.563 241.167 385.063 242.167 385.363 243.3C385.663 244.433 385.813 245.617 385.813 246.85V262H379.813V249.85C379.813 249.183 379.779 248.45 379.713 247.65C379.646 246.817 379.463 246.05 379.163 245.35C378.896 244.617 378.463 244.017 377.863 243.55C377.263 243.05 376.446 242.8 375.413 242.8C374.413 242.8 373.563 242.967 372.863 243.3C372.196 243.633 371.629 244.083 371.163 244.65C370.729 245.217 370.413 245.867 370.213 246.6C370.013 247.333 369.913 248.1 369.913 248.9V262H363.913V224.2H369.913V241.35ZM391.424 250C391.424 248.1 391.757 246.383 392.424 244.85C393.124 243.283 394.057 241.95 395.224 240.85C396.39 239.75 397.774 238.9 399.374 238.3C400.974 237.7 402.674 237.4 404.474 237.4C406.274 237.4 407.974 237.7 409.574 238.3C411.174 238.9 412.557 239.75 413.724 240.85C414.89 241.95 415.807 243.283 416.474 244.85C417.174 246.383 417.524 248.1 417.524 250C417.524 251.9 417.174 253.633 416.474 255.2C415.807 256.733 414.89 258.05 413.724 259.15C412.557 260.25 411.174 261.1 409.574 261.7C407.974 262.3 406.274 262.6 404.474 262.6C402.674 262.6 400.974 262.3 399.374 261.7C397.774 261.1 396.39 260.25 395.224 259.15C394.057 258.05 393.124 256.733 392.424 255.2C391.757 253.633 391.424 251.9 391.424 250ZM397.424 250C397.424 250.933 397.574 251.833 397.874 252.7C398.207 253.567 398.674 254.333 399.274 255C399.907 255.667 400.657 256.2 401.524 256.6C402.39 257 403.374 257.2 404.474 257.2C405.574 257.2 406.557 257 407.424 256.6C408.29 256.2 409.024 255.667 409.624 255C410.257 254.333 410.724 253.567 411.024 252.7C411.357 251.833 411.524 250.933 411.524 250C411.524 249.067 411.357 248.167 411.024 247.3C410.724 246.433 410.257 245.667 409.624 245C409.024 244.333 408.29 243.8 407.424 243.4C406.557 243 405.574 242.8 404.474 242.8C403.374 242.8 402.39 243 401.524 243.4C400.657 243.8 399.907 244.333 399.274 245C398.674 245.667 398.207 246.433 397.874 247.3C397.574 248.167 397.424 249.067 397.424 250ZM423.141 238H428.841V241.6H428.941C429.808 240.133 430.975 239.067 432.441 238.4C433.908 237.733 435.491 237.4 437.191 237.4C439.025 237.4 440.675 237.733 442.141 238.4C443.608 239.033 444.858 239.917 445.891 241.05C446.925 242.183 447.708 243.517 448.241 245.05C448.775 246.583 449.041 248.233 449.041 250C449.041 251.767 448.758 253.417 448.191 254.95C447.625 256.483 446.825 257.817 445.791 258.95C444.791 260.083 443.575 260.983 442.141 261.65C440.708 262.283 439.141 262.6 437.441 262.6C436.308 262.6 435.308 262.483 434.441 262.25C433.575 262.017 432.808 261.717 432.141 261.35C431.475 260.983 430.908 260.6 430.441 260.2C429.975 259.767 429.591 259.35 429.291 258.95H429.141V273.4H423.141V238ZM443.041 250C443.041 249.067 442.875 248.167 442.541 247.3C442.241 246.433 441.775 245.667 441.141 245C440.541 244.333 439.808 243.8 438.941 243.4C438.075 243 437.091 242.8 435.991 242.8C434.891 242.8 433.908 243 433.041 243.4C432.175 243.8 431.425 244.333 430.791 245C430.191 245.667 429.725 246.433 429.391 247.3C429.091 248.167 428.941 249.067 428.941 250C428.941 250.933 429.091 251.833 429.391 252.7C429.725 253.567 430.191 254.333 430.791 255C431.425 255.667 432.175 256.2 433.041 256.6C433.908 257 434.891 257.2 435.991 257.2C437.091 257.2 438.075 257 438.941 256.6C439.808 256.2 440.541 255.667 441.141 255C441.775 254.333 442.241 253.567 442.541 252.7C442.875 251.833 443.041 250.933 443.041 250Z" fill="black"/>
<g filter="url(#filter0_d_636_6)">
<path d="M189 15.667C148.135 15.667 115 48.5465 115 89.0968C115 129.647 148.135 162.527 189 162.527C229.865 162.527 263 129.647 263 89.0968C263 48.5465 229.865 15.667 189 15.667ZM212.802 90.2278L176.727 116.272C176.529 116.413 176.296 116.498 176.053 116.516C175.811 116.534 175.567 116.485 175.351 116.375C175.134 116.265 174.952 116.098 174.825 115.892C174.697 115.686 174.63 115.449 174.629 115.207V63.1505C174.629 62.9084 174.695 62.6707 174.822 62.4639C174.949 62.2571 175.132 62.0893 175.349 61.979C175.566 61.8686 175.81 61.8202 176.053 61.8389C176.296 61.8576 176.53 61.9429 176.727 62.0851L212.802 88.1134C212.973 88.233 213.112 88.3914 213.208 88.5753C213.304 88.7593 213.354 88.9634 213.354 89.1706C213.354 89.3777 213.304 89.5818 213.208 89.7658C213.112 89.9497 212.973 90.1081 212.802 90.2278Z" fill="white" fill-opacity="0.8" shape-rendering="crispEdges"/>
</g>
<defs>
<filter id="filter0_d_636_6" x="90" y="0.666992" width="198" height="196.859" filterUnits="userSpaceOnUse" color-interpolation-filters="sRGB">
<feFlood flood-opacity="0" result="BackgroundImageFix"/>
<feColorMatrix in="SourceAlpha" type="matrix" values="0 0 0 0 0 0 0 0 0 0 0 0 0 0 0 0 0 0 127 0" result="hardAlpha"/>
<feOffset dy="10"/>
<feGaussianBlur stdDeviation="12.5"/>
<feComposite in2="hardAlpha" operator="out"/>
<feColorMatrix type="matrix" values="0 0 0 0 0 0 0 0 0 0 0 0 0 0 0 0 0 0 0.25 0"/>
<feBlend mode="normal" in2="BackgroundImageFix" result="effect1_dropShadow_636_6"/>
<feBlend mode="normal" in="SourceGraphic" in2="effect1_dropShadow_636_6" result="shape"/>
</filter>
</defs>
</svg>
